<?xml version="1.0" standalone="yes"?>

<svg version="1.1" viewBox="0.0 0.0 960.0 720.0" fill="none" stroke="none" stroke-linecap="square" stroke-miterlimit="10" xmlns="http://www.w3.org/2000/svg" xmlns:xlink="http://www.w3.org/1999/xlink"><clipPath id="p.0"><path d="m0 0l960.0 0l0 720.0l-960.0 0l0 -720.0z" clip-rule="nonzero"></path></clipPath><g clip-path="url(#p.0)"><path fill="#000000" fill-opacity="0.0" d="m0 0l960.0 0l0 720.0l-960.0 0z" fill-rule="nonzero"></path><path fill="#cfe2f3" d="m130.03937 122.39144l0 0c0 -10.034103 8.134247 -18.168343 18.16835 -18.168343l271.56885 0c4.8185425 0 9.439728 1.914154 12.846954 5.3213806c3.4072266 3.4072266 5.3213806 8.0284195 5.3213806 12.846962l0 72.67118c0 10.034103 -8.134247 18.16835 -18.168335 18.16835l-271.56885 0c-10.034103 0 -18.16835 -8.134247 -18.16835 -18.16835z" fill-rule="nonzero"></path><path stroke="#000000" stroke-width="1.0" stroke-linejoin="round" stroke-linecap="butt" d="m130.03937 122.39144l0 0c0 -10.034103 8.134247 -18.168343 18.16835 -18.168343l271.56885 0c4.8185425 0 9.439728 1.914154 12.846954 5.3213806c3.4072266 3.4072266 5.3213806 8.0284195 5.3213806 12.846962l0 72.67118c0 10.034103 -8.134247 18.16835 -18.168335 18.16835l-271.56885 0c-10.034103 0 -18.16835 -8.134247 -18.16835 -18.16835z" fill-rule="nonzero"></path><path fill="#000000" d="m213.73431 175.80704l0 -30.3125l-11.328125 0l0 -4.046875l27.234375 0l0 4.046875l-11.359375 0l0 30.3125l-4.546875 0zm20.039062 0l0 -34.359375l4.21875 0l0 12.328125q2.953125 -3.421875 7.453125 -3.421875q2.765625 0 4.796875 1.09375q2.046875 1.078125 2.921875 3.0q0.875 1.921875 0.875 5.578125l0 15.78125l-4.21875 0l0 -15.78125q0 -3.15625 -1.375 -4.59375q-1.359375 -1.453125 -3.875 -1.453125q-1.875 0 -3.53125 0.984375q-1.640625 0.96875 -2.34375 2.640625q-0.703125 1.65625 -0.703125 4.578125l0 13.625l-4.21875 0zm43.726562 -8.015625l4.359375 0.53125q-1.03125 3.828125 -3.828125 5.9375q-2.78125 2.109375 -7.109375 2.109375q-5.46875 0 -8.671875 -3.359375q-3.1875 -3.375 -3.1875 -9.4375q0 -6.28125 3.234375 -9.75q3.234375 -3.46875 8.390625 -3.46875q4.984375 0 8.140625 3.40625q3.171875 3.390625 3.171875 9.546875q0 0.375 -0.015625 1.125l-18.5625 0q0.234375 4.109375 2.3125 6.296875q2.09375 2.171875 5.203125 2.171875q2.328125 0 3.96875 -1.21875q1.640625 -1.21875 2.59375 -3.890625zm-13.84375 -6.828125l13.890625 0q-0.28125 -3.140625 -1.59375 -4.703125q-2.015625 -2.4375 -5.21875 -2.4375q-2.90625 0 -4.890625 1.953125q-1.984375 1.9375 -2.1875 5.1875zm39.742188 11.765625q-2.34375 2.0 -4.515625 2.828125q-2.15625 0.8125 -4.640625 0.8125q-4.109375 0 -6.3125 -2.0q-2.203125 -2.015625 -2.203125 -5.125q0 -1.828125 0.828125 -3.34375q0.84375 -1.515625 2.1875 -2.421875q1.34375 -0.921875 3.03125 -1.390625q1.25 -0.328125 3.75 -0.625q5.109375 -0.609375 7.53125 -1.453125q0.015625 -0.875 0.015625 -1.109375q0 -2.578125 -1.1875 -3.625q-1.625 -1.4375 -4.8125 -1.4375q-2.96875 0 -4.390625 1.046875q-1.421875 1.046875 -2.09375 3.6875l-4.125 -0.5625q0.5625 -2.640625 1.84375 -4.265625q1.296875 -1.640625 3.734375 -2.515625q2.4375 -0.875 5.640625 -0.875q3.1875 0 5.171875 0.75q2.0 0.75 2.9375 1.890625q0.9375 1.125 1.3125 2.859375q0.21875 1.078125 0.21875 3.890625l0 5.625q0 5.890625 0.265625 7.453125q0.265625 1.546875 1.0625 2.984375l-4.40625 0q-0.65625 -1.3125 -0.84375 -3.078125zm-0.34375 -9.421875q-2.296875 0.9375 -6.890625 1.59375q-2.609375 0.375 -3.6875 0.84375q-1.078125 0.46875 -1.671875 1.375q-0.578125 0.90625 -0.578125 2.0q0 1.6875 1.28125 2.8125q1.28125 1.125 3.734375 1.125q2.4375 0 4.328125 -1.0625q1.90625 -1.0625 2.796875 -2.921875q0.6875 -1.421875 0.6875 -4.21875l0 -1.546875zm20.007812 8.71875l0.609375 3.734375q-1.78125 0.375 -3.1875 0.375q-2.296875 0 -3.5625 -0.71875q-1.265625 -0.734375 -1.78125 -1.921875q-0.515625 -1.1875 -0.515625 -4.984375l0 -14.3125l-3.09375 0l0 -3.28125l3.09375 0l0 -6.171875l4.203125 -2.53125l0 8.703125l4.234375 0l0 3.28125l-4.234375 0l0 14.546875q0 1.8125 0.21875 2.328125q0.21875 0.515625 0.71875 0.828125q0.515625 0.296875 1.453125 0.296875q0.703125 0 1.84375 -0.171875zm21.164062 -4.234375l4.359375 0.53125q-1.03125 3.828125 -3.828125 5.9375q-2.78125 2.109375 -7.109375 2.109375q-5.46875 0 -8.671875 -3.359375q-3.1875 -3.375 -3.1875 -9.4375q0 -6.28125 3.234375 -9.75q3.234375 -3.46875 8.390625 -3.46875q4.984375 0 8.140625 3.40625q3.171875 3.390625 3.171875 9.546875q0 0.375 -0.015625 1.125l-18.5625 0q0.234375 4.109375 2.3125 6.296875q2.09375 2.171875 5.203125 2.171875q2.328125 0 3.96875 -1.21875q1.640625 -1.21875 2.59375 -3.890625zm-13.84375 -6.828125l13.890625 0q-0.28125 -3.140625 -1.59375 -4.703125q-2.015625 -2.4375 -5.21875 -2.4375q-2.90625 0 -4.890625 1.953125q-1.984375 1.9375 -2.1875 5.1875zm23.460938 14.84375l0 -24.890625l3.796875 0l0 3.765625q1.453125 -2.640625 2.671875 -3.484375q1.234375 -0.84375 2.71875 -0.84375q2.125 0 4.328125 1.359375l-1.453125 3.90625q-1.546875 -0.90625 -3.09375 -0.90625q-1.375 0 -2.484375 0.828125q-1.09375 0.828125 -1.5625 2.3125q-0.703125 2.25 -0.703125 4.921875l0 13.03125l-4.21875 0z" fill-rule="nonzero"></path><path fill="#cfe2f3" d="m532.084 43.47543l0 0c0 -10.0341 8.134277 -18.168343 18.168335 -18.168343l271.56885 0c4.8185425 0 9.439697 1.9141579 12.846924 5.3213844c3.4072266 3.4072227 5.321411 8.028412 5.321411 12.846958l0 72.67119c0 10.034096 -8.134216 18.168335 -18.168335 18.168335l-271.56885 0c-10.034058 0 -18.168335 -8.134239 -18.168335 -18.168335z" fill-rule="nonzero"></path><path stroke="#000000" stroke-width="1.0" stroke-linejoin="round" stroke-linecap="butt" d="m532.084 43.47543l0 0c0 -10.0341 8.134277 -18.168343 18.168335 -18.168343l271.56885 0c4.8185425 0 9.439697 1.9141579 12.846924 5.3213844c3.4072266 3.4072227 5.321411 8.028412 5.321411 12.846958l0 72.67119c0 10.034096 -8.134216 18.168335 -18.168335 18.168335l-271.56885 0c-10.034058 0 -18.168335 -8.134239 -18.168335 -18.168335z" fill-rule="nonzero"></path><path fill="#000000" d="m620.3766 96.89102l0 -34.35937l12.96875 0q3.421875 0 5.21875 0.328125q2.53125 0.421875 4.234375 1.6093712q1.71875 1.171875 2.765625 3.3125q1.046875 2.125 1.046875 4.6875q0 4.375 -2.796875 7.421875q-2.78125 3.03125 -10.078125 3.03125l-8.8125 0l0 13.96875l-4.546875 0zm4.546875 -18.03125l8.890625 0q4.40625 0 6.25 -1.640625q1.859375 -1.640625 1.859375 -4.609375q0 -2.15625 -1.09375 -3.6875q-1.09375 -1.546875 -2.875 -2.03125q-1.140625 -0.3125 -4.234375 -0.3125l-8.796875 0l0 12.28125zm25.359375 5.578125q0 -6.90625 3.84375 -10.234375q3.21875 -2.765625 7.828125 -2.765625q5.140625 0 8.390625 3.359375q3.265625 3.359375 3.265625 9.296875q0 4.796875 -1.453125 7.5625q-1.4375 2.75 -4.1875 4.28125q-2.75 1.515625 -6.015625 1.515625q-5.21875 0 -8.453125 -3.34375q-3.21875 -3.359375 -3.21875 -9.671875zm4.34375 0q0 4.78125 2.078125 7.171875q2.09375 2.375 5.25 2.375q3.140625 0 5.21875 -2.390625q2.09375 -2.390625 2.09375 -7.296875q0 -4.609375 -2.09375 -6.984375q-2.09375 -2.390625 -5.21875 -2.390625q-3.15625 0 -5.25 2.375q-2.078125 2.359375 -2.078125 7.140625zm22.242188 5.015625l4.171875 -0.65625q0.34375 2.515625 1.953125 3.859375q1.609375 1.328125 4.484375 1.328125q2.90625 0 4.3125 -1.1875q1.40625 -1.1875 1.40625 -2.78125q0 -1.421875 -1.234375 -2.25q-0.875 -0.5625 -4.3125 -1.421875q-4.640625 -1.171875 -6.4375 -2.03125q-1.796875 -0.859375 -2.71875 -2.359375q-0.921875 -1.515625 -0.921875 -3.34375q0 -1.671875 0.75 -3.078125q0.765625 -1.421875 2.078125 -2.359375q0.984375 -0.734375 2.6875 -1.234375q1.703125 -0.5 3.640625 -0.5q2.9375 0 5.140625 0.84375q2.21875 0.84375 3.265625 2.28125q1.0625 1.4375 1.46875 3.859375l-4.125 0.5625q-0.28125 -1.921875 -1.640625 -3.0q-1.34375 -1.078125 -3.796875 -1.078125q-2.90625 0 -4.15625 0.96875q-1.234375 0.953125 -1.234375 2.234375q0 0.828125 0.515625 1.484375q0.515625 0.671875 1.609375 1.125q0.640625 0.234375 3.734375 1.078125q4.46875 1.1875 6.234375 1.953125q1.78125 0.765625 2.78125 2.21875q1.015625 1.453125 1.015625 3.609375q0 2.109375 -1.234375 3.96875q-1.234375 1.859375 -3.5625 2.890625q-2.3125 1.015625 -5.234375 1.015625q-4.859375 0 -7.40625 -2.015625q-2.53125 -2.015625 -3.234375 -5.984375zm34.890625 3.65625l0.609375 3.734375q-1.78125 0.375 -3.1875 0.375q-2.296875 0 -3.5625 -0.71875q-1.265625 -0.734375 -1.78125 -1.921875q-0.515625 -1.1875 -0.515625 -4.984375l0 -14.3125l-3.09375 0l0 -3.28125l3.09375 0l0 -6.171875l4.203125 -2.5312462l0 8.703121l4.234375 0l0 3.28125l-4.234375 0l0 14.546875q0 1.8125 0.21875 2.328125q0.21875 0.515625 0.71875 0.828125q0.515625 0.296875 1.453125 0.296875q0.703125 0 1.84375 -0.171875zm21.164062 -4.234375l4.359375 0.53125q-1.03125 3.828125 -3.828125 5.9375q-2.78125 2.109375 -7.109375 2.109375q-5.46875 0 -8.671875 -3.359375q-3.1875 -3.375 -3.1875 -9.4375q0 -6.28125 3.234375 -9.75q3.234375 -3.46875 8.390625 -3.46875q4.984375 0 8.140625 3.40625q3.171875 3.390625 3.171875 9.546875q0 0.375 -0.015625 1.125l-18.5625 0q0.234375 4.109375 2.3125 6.296875q2.09375 2.171875 5.203125 2.171875q2.328125 0 3.96875 -1.21875q1.640625 -1.21875 2.59375 -3.890625zm-13.84375 -6.828125l13.890625 0q-0.28125 -3.140625 -1.59375 -4.703125q-2.015625 -2.4375 -5.21875 -2.4375q-2.90625 0 -4.890625 1.953125q-1.984375 1.9375 -2.1875 5.1875zm23.460938 14.84375l0 -24.890625l3.796875 0l0 3.765625q1.453125 -2.640625 2.671875 -3.484375q1.234375 -0.84375 2.71875 -0.84375q2.125 0 4.328125 1.359375l-1.453125 3.90625q-1.546875 -0.90625 -3.09375 -0.90625q-1.375 0 -2.484375 0.828125q-1.09375 0.828125 -1.5625 2.3125q-0.703125 2.25 -0.703125 4.921875l0 13.03125l-4.21875 0z" fill-rule="nonzero"></path><path fill="#cfe2f3" d="m479.7454 122.39144l0 0c0 -10.034103 8.134247 -18.168343 18.168365 -18.168343l271.56885 0c4.8185425 0 9.439697 1.914154 12.846924 5.3213806c3.4072266 3.4072266 5.321411 8.0284195 5.321411 12.846962l0 72.67118c0 10.034103 -8.134277 18.16835 -18.168335 18.16835l-271.56885 0c-10.034119 0 -18.168365 -8.134247 -18.168365 -18.16835z" fill-rule="nonzero"></path><path stroke="#000000" stroke-width="1.0" stroke-linejoin="round" stroke-linecap="butt" d="m479.7454 122.39144l0 0c0 -10.034103 8.134247 -18.168343 18.168365 -18.168343l271.56885 0c4.8185425 0 9.439697 1.914154 12.846924 5.3213806c3.4072266 3.4072266 5.321411 8.0284195 5.321411 12.846962l0 72.67118c0 10.034103 -8.134277 18.16835 -18.168335 18.16835l-271.56885 0c-10.034119 0 -18.168365 -8.134247 -18.168365 -18.16835z" fill-rule="nonzero"></path><path fill="#000000" d="m573.24115 175.80704l0 -34.359375l6.84375 0l8.140625 24.328125q1.125 3.390625 1.640625 5.078125q0.578125 -1.875 1.828125 -5.5l8.21875 -23.90625l6.125 0l0 34.359375l-4.390625 0l0 -28.765625l-9.984375 28.765625l-4.09375 0l-9.9375 -29.25l0 29.25l-4.390625 0zm38.015625 -12.453125q0 -6.90625 3.84375 -10.234375q3.21875 -2.765625 7.828125 -2.765625q5.140625 0 8.390625 3.359375q3.265625 3.359375 3.265625 9.296875q0 4.796875 -1.453125 7.5625q-1.4375 2.75 -4.1875 4.28125q-2.75 1.515625 -6.015625 1.515625q-5.21875 0 -8.453125 -3.34375q-3.21875 -3.359375 -3.21875 -9.671875zm4.34375 0q0 4.78125 2.078125 7.171875q2.09375 2.375 5.25 2.375q3.140625 0 5.21875 -2.390625q2.09375 -2.390625 2.09375 -7.296875q0 -4.609375 -2.09375 -6.984375q-2.09375 -2.390625 -5.21875 -2.390625q-3.15625 0 -5.25 2.375q-2.078125 2.359375 -2.078125 7.140625zm30.835938 12.453125l-9.46875 -24.890625l4.453125 0l5.34375 14.90625q0.875 2.40625 1.59375 5.015625q0.5625 -1.96875 1.578125 -4.734375l5.53125 -15.1875l4.328125 0l-9.421875 24.890625l-3.9375 0zm17.109375 -29.515625l0 -4.84375l4.21875 0l0 4.84375l-4.21875 0zm0 29.515625l0 -24.890625l4.21875 0l0 24.890625l-4.21875 0zm27.679688 -8.015625l4.359375 0.53125q-1.03125 3.828125 -3.828125 5.9375q-2.78125 2.109375 -7.109375 2.109375q-5.46875 0 -8.671875 -3.359375q-3.1875 -3.375 -3.1875 -9.4375q0 -6.28125 3.234375 -9.75q3.234375 -3.46875 8.390625 -3.46875q4.984375 0 8.140625 3.40625q3.171875 3.390625 3.171875 9.546875q0 0.375 -0.015625 1.125l-18.5625 0q0.234375 4.109375 2.3125 6.296875q2.09375 2.171875 5.203125 2.171875q2.328125 0 3.96875 -1.21875q1.640625 -1.21875 2.59375 -3.890625zm-13.84375 -6.828125l13.890625 0q-0.28125 -3.140625 -1.59375 -4.703125q-2.015625 -2.4375 -5.21875 -2.4375q-2.90625 0 -4.890625 1.953125q-1.984375 1.9375 -2.1875 5.1875z" fill-rule="nonzero"></path><path fill="#cfe2f3" d="m307.12073 305.21295l0 0c0 -10.034088 8.134247 -18.168335 18.168335 -18.168335l271.56885 0c4.8185425 0 9.439697 1.914154 12.846924 5.3213806c3.4072266 3.4072266 5.321411 8.028412 5.321411 12.846954l0 72.6712c0 10.034088 -8.134216 18.168335 -18.168335 18.168335l-271.56885 0c-10.034088 0 -18.168335 -8.134247 -18.168335 -18.168335z" fill-rule="nonzero"></path><path stroke="#000000" stroke-width="1.0" stroke-linejoin="round" stroke-linecap="butt" d="m307.12073 305.21295l0 0c0 -10.034088 8.134247 -18.168335 18.168335 -18.168335l271.56885 0c4.8185425 0 9.439697 1.914154 12.846924 5.3213806c3.4072266 3.4072266 5.321411 8.028412 5.321411 12.846954l0 72.6712c0 10.034088 -8.134216 18.168335 -18.168335 18.168335l-271.56885 0c-10.034088 0 -18.168335 -8.134247 -18.168335 -18.168335z" fill-rule="nonzero"></path><path fill="#000000" d="m355.15942 347.5817l4.296875 -0.375q0.296875 2.578125 1.40625 4.234375q1.125 1.65625 3.46875 2.671875q2.34375 1.015625 5.265625 1.015625q2.609375 0 4.59375 -0.765625q2.0 -0.78125 2.96875 -2.125q0.96875 -1.34375 0.96875 -2.9375q0 -1.625 -0.9375 -2.828125q-0.9375 -1.203125 -3.09375 -2.03125q-1.375 -0.53125 -6.109375 -1.671875q-4.734375 -1.140625 -6.640625 -2.140625q-2.453125 -1.296875 -3.671875 -3.203125q-1.203125 -1.90625 -1.203125 -4.28125q0 -2.59375 1.46875 -4.859375q1.484375 -2.265625 4.3125 -3.4375q2.84375 -1.171875 6.3125 -1.171875q3.828125 0 6.734375 1.234375q2.921875 1.234375 4.484375 3.625q1.578125 2.390625 1.703125 5.40625l-4.359375 0.328125q-0.359375 -3.25 -2.390625 -4.90625q-2.015625 -1.671875 -5.984375 -1.671875q-4.125 0 -6.015625 1.515625q-1.875 1.5 -1.875 3.640625q0 1.84375 1.328125 3.046875q1.3125 1.1875 6.859375 2.453125q5.546875 1.25 7.609375 2.1875q3.0 1.375 4.421875 3.5q1.4375 2.125 1.4375 4.890625q0 2.734375 -1.578125 5.171875q-1.5625 2.421875 -4.515625 3.78125q-2.9375 1.34375 -6.609375 1.34375q-4.671875 0 -7.828125 -1.359375q-3.140625 -1.375 -4.9375 -4.09375q-1.796875 -2.734375 -1.890625 -6.1875zm49.265625 1.921875l4.15625 0.546875q-0.6875 4.28125 -3.484375 6.71875q-2.796875 2.421875 -6.875 2.421875q-5.109375 0 -8.21875 -3.34375q-3.109375 -3.34375 -3.109375 -9.578125q0 -4.03125 1.328125 -7.046875q1.34375 -3.03125 4.078125 -4.53125q2.734375 -1.515625 5.9375 -1.515625q4.0625 0 6.640625 2.046875q2.578125 2.046875 3.296875 5.828125l-4.09375 0.625q-0.59375 -2.5 -2.078125 -3.765625q-1.484375 -1.265625 -3.59375 -1.265625q-3.1875 0 -5.1875 2.28125q-1.984375 2.28125 -1.984375 7.234375q0 5.015625 1.921875 7.296875q1.921875 2.265625 5.015625 2.265625q2.484375 0 4.140625 -1.515625q1.671875 -1.53125 2.109375 -4.703125zm7.71875 9.125l0 -24.890625l3.796875 0l0 3.765625q1.453125 -2.640625 2.671875 -3.484375q1.234375 -0.84375 2.71875 -0.84375q2.125 0 4.328125 1.359375l-1.453125 3.90625q-1.546875 -0.90625 -3.09375 -0.90625q-1.375 0 -2.484375 0.828125q-1.09375 0.828125 -1.5625 2.3125q-0.703125 2.25 -0.703125 4.921875l0 13.03125l-4.21875 0zm33.0625 -8.015625l4.359375 0.53125q-1.03125 3.828125 -3.828125 5.9375q-2.78125 2.109375 -7.109375 2.109375q-5.46875 0 -8.671875 -3.359375q-3.1875 -3.375 -3.1875 -9.4375q0 -6.28125 3.234375 -9.75q3.234375 -3.46875 8.390625 -3.46875q4.984375 0 8.140625 3.40625q3.171875 3.390625 3.171875 9.546875q0 0.375 -0.015625 1.125l-18.5625 0q0.234375 4.109375 2.3125 6.296875q2.09375 2.171875 5.203125 2.171875q2.328125 0 3.96875 -1.21875q1.640625 -1.21875 2.59375 -3.890625zm-13.84375 -6.828125l13.890625 0q-0.28125 -3.140625 -1.59375 -4.703125q-2.015625 -2.4375 -5.21875 -2.4375q-2.90625 0 -4.890625 1.953125q-1.984375 1.9375 -2.1875 5.1875zm40.539062 6.828125l4.359375 0.53125q-1.03125 3.828125 -3.828125 5.9375q-2.78125 2.109375 -7.109375 2.109375q-5.46875 0 -8.671875 -3.359375q-3.1875 -3.375 -3.1875 -9.4375q0 -6.28125 3.234375 -9.75q3.234375 -3.46875 8.390625 -3.46875q4.984375 0 8.140625 3.40625q3.171875 3.390625 3.171875 9.546875q0 0.375 -0.015625 1.125l-18.5625 0q0.234375 4.109375 2.3125 6.296875q2.09375 2.171875 5.203125 2.171875q2.328125 0 3.96875 -1.21875q1.640625 -1.21875 2.59375 -3.890625zm-13.84375 -6.828125l13.890625 0q-0.28125 -3.140625 -1.59375 -4.703125q-2.015625 -2.4375 -5.21875 -2.4375q-2.90625 0 -4.890625 1.953125q-1.984375 1.9375 -2.1875 5.1875zm23.507812 14.84375l0 -24.890625l3.796875 0l0 3.53125q2.734375 -4.09375 7.921875 -4.09375q2.25 0 4.125 0.8125q1.890625 0.796875 2.828125 2.109375q0.9375 1.3125 1.3125 3.125q0.234375 1.171875 0.234375 4.09375l0 15.3125l-4.21875 0l0 -15.140625q0 -2.578125 -0.5 -3.859375q-0.484375 -1.28125 -1.734375 -2.03125q-1.25 -0.765625 -2.9375 -0.765625q-2.703125 0 -4.65625 1.71875q-1.953125 1.703125 -1.953125 6.484375l0 13.59375l-4.21875 0zm26.710938 -29.515625l0 -4.84375l4.21875 0l0 4.84375l-4.21875 0zm0 29.515625l0 -24.890625l4.21875 0l0 24.890625l-4.21875 0zm10.6484375 0l0 -24.890625l3.796875 0l0 3.53125q2.734375 -4.09375 7.921875 -4.09375q2.25 0 4.125 0.8125q1.890625 0.796875 2.828125 2.109375q0.9375 1.3125 1.3125 3.125q0.234375 1.171875 0.234375 4.09375l0 15.3125l-4.21875 0l0 -15.140625q0 -2.578125 -0.5 -3.859375q-0.484375 -1.28125 -1.734375 -2.03125q-1.25 -0.765625 -2.9375 -0.765625q-2.703125 0 -4.65625 1.71875q-1.953125 1.703125 -1.953125 6.484375l0 13.59375l-4.21875 0zm25.914062 2.0625l4.109375 0.609375q0.25 1.90625 1.421875 2.765625q1.578125 1.171875 4.296875 1.171875q2.921875 0 4.515625 -1.171875q1.59375 -1.171875 2.15625 -3.28125q0.328125 -1.28125 0.3125 -5.421875q-2.765625 3.265625 -6.890625 3.265625q-5.140625 0 -7.953125 -3.703125q-2.8125 -3.703125 -2.8125 -8.890625q0 -3.5625 1.28125 -6.5625q1.296875 -3.015625 3.75 -4.65625q2.453125 -1.640625 5.75 -1.640625q4.40625 0 7.265625 3.5625l0 -3.0l3.890625 0l0 21.515625q0 5.8125 -1.1875 8.234375q-1.171875 2.4375 -3.75 3.84375q-2.5625 1.40625 -6.3125 1.40625q-4.453125 0 -7.203125 -2.015625q-2.734375 -2.0 -2.640625 -6.03125zm3.5 -14.953125q0 4.890625 1.9375 7.140625q1.953125 2.25 4.875 2.25q2.90625 0 4.875 -2.234375q1.96875 -2.234375 1.96875 -7.015625q0 -4.578125 -2.03125 -6.890625q-2.015625 -2.328125 -4.875 -2.328125q-2.8125 0 -4.78125 2.296875q-1.96875 2.28125 -1.96875 6.78125z" fill-rule="nonzero"></path><path fill="#cfe2f3" d="m307.12073 465.59616l0 0c0 -10.034088 8.134247 -18.168335 18.168335 -18.168335l271.56885 0c4.8185425 0 9.439697 1.914154 12.846924 5.3213806c3.4072266 3.4072266 5.321411 8.028412 5.321411 12.846954l0 72.67117c0 10.034119 -8.134216 18.168335 -18.168335 18.168335l-271.56885 0c-10.034088 0 -18.168335 -8.134216 -18.168335 -18.168335z" fill-rule="nonzero"></path><path stroke="#000000" stroke-width="1.0" stroke-linejoin="round" stroke-linecap="butt" d="m307.12073 465.59616l0 0c0 -10.034088 8.134247 -18.168335 18.168335 -18.168335l271.56885 0c4.8185425 0 9.439697 1.914154 12.846924 5.3213806c3.4072266 3.4072266 5.321411 8.028412 5.321411 12.846954l0 72.67117c0 10.034119 -8.134216 18.168335 -18.168335 18.168335l-271.56885 0c-10.034088 0 -18.168335 -8.134216 -18.168335 -18.168335z" fill-rule="nonzero"></path><path fill="#000000" d="m377.85864 519.0118l0 -34.359406l12.890625 0q3.9375 0 6.3125 1.046875q2.390625 1.03125 3.734375 3.203125q1.34375 2.171875 1.34375 4.53125q0 2.203125 -1.203125 4.15625q-1.1875 1.9375 -3.59375 3.140625q3.109375 0.90625 4.78125 3.109375q1.6875 2.203125 1.6875 5.203125q0 2.421875 -1.03125 4.5000305q-1.015625 2.0625 -2.515625 3.1875q-1.5 1.125 -3.765625 1.703125q-2.25 0.578125 -5.53125 0.578125l-13.109375 0zm4.546875 -19.921906l7.4375 0q3.015625 0 4.328125 -0.40625q1.734375 -0.515625 2.609375 -1.703125q0.890625 -1.203125 0.890625 -3.0q0 -1.71875 -0.828125 -3.015625q-0.8125 -1.296875 -2.34375 -1.78125q-1.515625 -0.484375 -5.21875 -0.484375l-6.875 0l0 10.390625zm0 15.8594055l8.5625 0q2.203125 0 3.09375 -0.15625q1.5625 -0.28125 2.609375 -0.9375q1.0625 -0.65625 1.734375 -1.9062805q0.6875 -1.265625 0.6875 -2.90625q0 -1.921875 -0.984375 -3.328125q-0.984375 -1.421875 -2.734375 -2.0q-1.734375 -0.578125 -5.015625 -0.578125l-7.953125 0l0 11.8125305zm25.546875 -8.3906555q0 -6.90625 3.84375 -10.234375q3.21875 -2.765625 7.828125 -2.765625q5.140625 0 8.390625 3.359375q3.265625 3.359375 3.265625 9.296875q0 4.796875 -1.453125 7.5625305q-1.4375 2.75 -4.1875 4.28125q-2.75 1.515625 -6.015625 1.515625q-5.21875 0 -8.453125 -3.34375q-3.21875 -3.359375 -3.21875 -9.6719055zm4.34375 0q0 4.78125 2.078125 7.1719055q2.09375 2.375 5.25 2.375q3.140625 0 5.21875 -2.390625q2.09375 -2.3906555 2.09375 -7.2969055q0 -4.609375 -2.09375 -6.984375q-2.09375 -2.390625 -5.21875 -2.390625q-3.15625 0 -5.25 2.375q-2.078125 2.359375 -2.078125 7.140625zm22.351562 0q0 -6.90625 3.84375 -10.234375q3.21875 -2.765625 7.828125 -2.765625q5.140625 0 8.390625 3.359375q3.265625 3.359375 3.265625 9.296875q0 4.796875 -1.453125 7.5625305q-1.4375 2.75 -4.1875 4.28125q-2.75 1.515625 -6.015625 1.515625q-5.21875 0 -8.453125 -3.34375q-3.21875 -3.359375 -3.21875 -9.6719055zm4.34375 0q0 4.78125 2.078125 7.1719055q2.09375 2.375 5.25 2.375q3.140625 0 5.21875 -2.390625q2.09375 -2.3906555 2.09375 -7.2969055q0 -4.609375 -2.09375 -6.984375q-2.09375 -2.390625 -5.21875 -2.390625q-3.15625 0 -5.25 2.375q-2.078125 2.359375 -2.078125 7.140625zm23.945312 12.4531555l0 -34.359406l4.21875 0l0 19.59375l9.984375 -10.125l5.46875 0l-9.515625 9.234375l10.46875 15.6562805l-5.203125 0l-8.21875 -12.7344055l-2.984375 2.859375l0 9.8750305l-4.21875 0zm24.0 -29.515656l0 -4.84375l4.21875 0l0 4.84375l-4.21875 0zm0 29.515656l0 -24.890656l4.21875 0l0 24.890656l-4.21875 0zm10.6484375 0l0 -24.890656l3.796875 0l0 3.53125q2.734375 -4.09375 7.921875 -4.09375q2.25 0 4.125 0.8125q1.890625 0.796875 2.828125 2.109375q0.9375 1.3125 1.3125 3.125q0.234375 1.171875 0.234375 4.09375l0 15.3125305l-4.21875 0l0 -15.1406555q0 -2.578125 -0.5 -3.859375q-0.484375 -1.28125 -1.734375 -2.03125q-1.25 -0.765625 -2.9375 -0.765625q-2.703125 0 -4.65625 1.71875q-1.953125 1.703125 -1.953125 6.484375l0 13.5937805l-4.21875 0zm25.914062 2.0625l4.109375 0.609375q0.25 1.90625 1.421875 2.765625q1.578125 1.171875 4.296875 1.171875q2.921875 0 4.515625 -1.171875q1.59375 -1.171875 2.15625 -3.28125q0.328125 -1.28125 0.3125 -5.421875q-2.765625 3.265625 -6.890625 3.265625q-5.140625 0 -7.953125 -3.703125q-2.8125 -3.7031555 -2.8125 -8.8906555q0 -3.5625 1.28125 -6.5625q1.296875 -3.015625 3.75 -4.65625q2.453125 -1.640625 5.75 -1.640625q4.40625 0 7.265625 3.5625l0 -3.0l3.890625 0l0 21.515656q0 5.8125 -1.1875 8.234375q-1.171875 2.4375 -3.75 3.84375q-2.5625 1.40625 -6.3125 1.40625q-4.453125 0 -7.203125 -2.015625q-2.734375 -2.0 -2.640625 -6.03125zm3.5 -14.9531555q0 4.890625 1.9375 7.1406555q1.953125 2.25 4.875 2.25q2.90625 0 4.875 -2.234375q1.96875 -2.2344055 1.96875 -7.0156555q0 -4.578125 -2.03125 -6.890625q-2.015625 -2.328125 -4.875 -2.328125q-2.8125 0 -4.78125 2.296875q-1.96875 2.28125 -1.96875 6.78125z" fill-rule="nonzero"></path></g></svg>

